<svg version="1.1"
     baseProfile="full"
     xmlns="http://www.w3.org/2000/svg"
     style="background:#f4f4f4">

      <line x1="10" x2="50" y1="110" y2="150" stroke = "#000000"/>

      <line x1="10" x2="100" y1="500" y2="200" stroke = "#0000FF"/>
  
      <circle cx="50" cy="50" r="40" fill = "#008000" stroke = "#008000"/>

      <circle cx="500" cy="300" r="100" fill = "#00FF00" stroke ="#00FF00"/>

      <ellipse cx="200" cy="80" rx="100" ry="50" fill = "#FF0000" stroke = "#FF0000"/>
  
      <ellipse cx="500" cy="80" rx="100" ry="50" fill = "#C0C0C0" stroke = "#C0C0C0"/>
       
     <polygon points="236.6,220.0 150.0,195.0 63.4,220.0 128.35,157.5 150.0,70.0 171.65,157.5" fill = "#008080" stroke = "#008080" />
  
     <polygon points="300.0,200.0 224.75,224.75 200.0,300.0 175.25,224.75 100.0,200.0 175.25,175.25 200.0,100.0 224.75,175.25" fill = "#008080" stroke = "#008080" />
  
     <polygon points="286.6,250 210.17,222.84 179.21,297.81 181.42,216.73 100.55,210.45 178.35,187.5 159.33,108.65 205.2,175.55 274.31,133.09 224.86,197.39" fill = "#FF00FF" stroke = "#FF00FF" />
  
</svg>

